<svg width="58" height="88" viewBox="0 0 58 88" fill="none" xmlns="http://www.w3.org/2000/svg">
<path d="M36.9005 86.7621L20.9208 86.756L20.9317 71.2794L36.9113 71.2865L36.9005 86.7621ZM28.2525 1.44137C37.2491 1.43977 44.2833 3.277 49.4073 6.89842C54.4738 10.4793 57.0502 16.295 57.0487 24.4708L57.0488 24.4798C57.0881 26.8084 56.8156 29.1317 56.2384 31.388C55.7401 33.2783 54.9368 35.0745 53.86 36.706C52.7386 38.365 51.4112 39.8748 49.9097 41.1997L49.907 41.2031C48.3322 42.6143 46.5393 44.0832 44.5283 45.6108C43.1149 46.6734 41.7805 47.8368 40.5349 49.091L40.0074 49.6328C38.8976 50.7925 37.9915 52.1314 37.3276 53.5928L37.3252 53.5993C36.7181 54.9851 36.323 56.4543 36.1532 57.9577L36.1526 57.9606C35.9908 59.4641 35.907 60.9748 35.9014 62.4868L21.4474 62.4326C21.4002 58.6278 21.7802 54.8292 22.5824 51.1086C23.3603 48.1127 24.8307 45.3411 26.876 43.0178L26.8849 43.0088C28.0999 41.556 29.5083 40.2765 31.0722 39.2084L31.073 39.2096C32.6369 38.146 34.1244 36.9732 35.5238 35.7008L35.523 35.6997C36.8831 34.48 38.0585 33.0686 39.0096 31.5088L39.0194 31.4909C40.0631 29.6082 40.5671 27.4738 40.4762 25.3231C40.4656 21.1477 39.323 18.0855 36.8808 16.3152L36.8747 16.3109L36.4121 15.9979C34.0717 14.4866 31.3284 13.7076 28.5348 13.7675C24.019 13.7594 20.7488 14.9878 18.9504 17.6986L18.9414 17.7126C17.1186 20.6696 16.0288 24.0163 15.7562 27.4746L0.508931 27.4655C0.518908 23.8715 1.18999 20.3086 2.49224 16.9558L2.49149 16.9546C3.72514 13.7858 5.64075 10.9263 8.10069 8.57844L8.09994 8.57729C10.4558 6.36743 13.2226 4.64469 16.2399 3.50354L16.8469 3.28312C20.5093 2.00806 24.367 1.3844 28.2446 1.44071L28.2525 1.44137Z" stroke="black"/>
</svg>
